# xmcd
#
# Track frame offsets: 
#        150
#        18967
#        38070
#        63865
#        87912
#        109405
#        136180
#        164125
#        182872
#        200787
#        222260
#        249117
#
# Disc length: 3660 seconds
#
# Revision: 7
# Processed by: cddbd v1.5.2PL0 Copyright (c) Steve Scherf et al.
# Submitted via: ExactAudioCopy v0.95b4
#
DISCID=a80e4a0c
DTITLE=Various Artist - Super Eurobeat Vol.100 -Request Count Down 10
DTITLE=0!!- Special Disc
DYEAR=1999
DGENRE=Eurobeat
TTITLE0=Ayumi Hamasaki - Depend On You (Extended Power Mix)
TTITLE1=Ayumi Hamasaki - Poker Face (Extended Power Mix)
TTITLE2=Ayumi Hamasaki - Trust (Melodic Remix)
TTITLE3=Ayumi Hamasaki - Whatever (Euro Power Mix)
TTITLE4=Ayumi Hamasaki - You (Sentimental Mix)
TTITLE5=Every Little Thing - Face The Change (Eurobeat Remix)
TTITLE6=Every Little Thing - Shapes Of Love (Euro Power Mix)
TTITLE7=Every Little Thing - Dea Z Takoro No Youni (Aggressive Remix)
TTITLE8=Every Little Thing - Dear My Friend (Extended Mix)
TTITLE9=Max - Senkou-Hikari-No Veil (Extended Joyful Mix)
TTITLE10=Max - Love Impact (Eurobeat Remix)
TTITLE11=Max - Ride On Time (Melodic Remix)
EXTD=
EXTT0=
EXTT1=
EXTT2=
EXTT3=
EXTT4=
EXTT5=
EXTT6=
EXTT7=
EXTT8=
EXTT9=
EXTT10=
EXTT11=
PLAYORDER=
